{"title":"Lust for Life(1956)MPEG-4[DaScubaDude]","uid":15075241,"size":1354023450,"categoryP":"video","categoryS":"movies","magnet":"?xt=urn:btih:38f7f1b5905e6d58ca3d27a16bc06e05350924d3&amp;dn=Lust+for+Life%281956%29MPEG-4%5BDaScubaDude%5D&amp;tr=udp%3A%2F%2Ftracker.leechers-paradise.org%3A6969&amp;tr=udp%3A%2F%2Fzer0day.ch%3A1337&amp;tr=udp%3A%2F%2Fopen.demonii.com%3A1337&amp;tr=udp%3A%2F%2Ftracker.coppersurfer.tk%3A6969&amp;tr=udp%3A%2F%2Fexodus.desync.com%3A6969","seeders":0,"leechers":1,"uploader":"dascuba","files":1,"time":1466828376,"description":"Lust for Life (1956)\r\nApproved | 2h 2min | Biography, Drama | 15 September 1956 (USA)\r\nThe life of brilliant but tortured artist Vincent van Gogh.\r\nDirectors: Vincente Minnelli, George Cukor (uncredited)\r\nWriters: Norman Corwin (screen play), Irving Stone (based on the novel by)\r\nStars: Kirk Douglas, Anthony Quinn, James Donald \r\n\r\n\r\nGeneral\r\nComplete name                            : LustforLifeLUST_FOR_LIFE_Title1.mp4\r\nFormat                                   : MPEG-4\r\nFormat profile                           : Base Media\r\nCodec ID                                 : isom (isom/iso2/avc1/mp41)\r\nFile size                                : 1.26 GiB\r\nDuration                                 : 2h 2mn\r\nOverall bit rate                         : 1 478 Kbps\r\nMovie name                               : LUST_FOR_LIFE\r\nGenre                                    : Drama\r\nWriting application                      : Lavf54.6.100\r\n\r\nVideo\r\nID                                       : 1\r\nFormat                                   : AVC\r\nFormat/Info                              : Advanced Video Codec\r\nFormat profile                           :   \r\nFormat settings, CABAC                   : No\r\nFormat settings, ReFrames                : 6 frames\r\nFormat settings, GOP                     : M=1, N=60\r\nCodec ID                                 : avc1\r\nCodec ID/Info                            : Advanced Video Coding\r\nDuration                                 : 2h 2mn\r\nBit rate                                 : 1 208 Kbps\r\nWidth                                    : 720 pixels\r\nHeight                                   : 404 pixels\r\nDisplay aspect ratio                     : 16:9\r\nFrame rate mode                          : Constant\r\nFrame rate                               : 29.970 (30000/1001) fps\r\nColor space                              : YUV\r\nChroma subsampling                       : 4:2:0\r\nBit depth                                : 8 bits\r\nScan type                                : Progressive\r\nBits/(Pixel*Frame)                       : 0.139\r\nStream size                              : 1.03 GiB (82%)\r\n\r\nAudio\r\nID                                       : 2\r\nFormat                                   : AAC\r\nFormat/Info                              : Advanced Audio Codec\r\nFormat profile                           : LC\r\nCodec ID                                 : 40\r\nDuration                                 : 2h 2mn\r\nBit rate mode                            : Constant\r\nBit rate                                 : 265 Kbps\r\nChannel(s)                               : 2 channels\r\nChannel(s)_Original                      : 6 channels\r\nChannel positions                        : Front: L C R, Side: L R, LFE\r\nSampling rate                            : 44.1 KHz\r\nFrame rate                               : 43.066 fps (1024 spf)\r\nCompression mode                         : Lossy\r\nStream size                              : 230 MiB (18%)\r\nDefault                                  : Yes\r\nAlternate group                          : 1","torrent":{"xt":"urn:btih:38f7f1b5905e6d58ca3d27a16bc06e05350924d3","amp;dn":"Lust+for+Life%281956%29MPEG-4%5BDaScubaDude%5D","amp;tr":["udp%3A%2F%2Ftracker.leechers-paradise.org%3A6969","udp%3A%2F%2Fzer0day.ch%3A1337","udp%3A%2F%2Fopen.demonii.com%3A1337","udp%3A%2F%2Ftracker.coppersurfer.tk%3A6969","udp%3A%2F%2Fexodus.desync.com%3A6969"],"infoHash":"38f7f1b5905e6d58ca3d27a16bc06e05350924d3","infoHashBuffer":{"type":"Buffer","data":[56,247,241,181,144,94,109,88,202,61,39,161,107,192,110,5,53,9,36,211]},"announce":[],"urlList":[]}}